<svg xmlns="http://www.w3.org/2000/svg" width="512" height="512" viewBox="0 0 512 512"><rect width="512" height="512" fill="#ffffff" /><polygon points="99,101 128,82 177,69 256,63 335,69 384,82 413,101 423,153 413,256 403,411 393,449 119,449 109,411 99,256 89,153" fill="#5a5a5a" /><polygon points="89,153 60,166 30,217 20,295 20,372 30,398 60,398 79,359 89,282 99,256" fill="#5a5a5a" /><polygon points="413,256 423,282 433,359 452,398 482,398 492,372 492,295 482,217 452,166 423,153" fill="#5a5a5a" /><polygon points="177,69 207,76 236,127 246,192 227,204 197,153 177,101" fill="#5a5a5a" /><polygon points="335,101 315,153 285,204 266,192 276,127 305,76 335,69" fill="#5a5a5a" /><polygon points="236,76 256,69 276,76 266,153 256,372 246,153" fill="#ffffff" /></svg>